<svg width="25" height="25" viewBox="0 0 25 25" fill="none" xmlns="http://www.w3.org/2000/svg">
<g clip-path="url(#clip0_677_76)">
<path d="M17.273 0.762011C17.222 0.705011 15.3845 0.784511 13.7855 2.52001C12.1865 4.25401 12.4325 6.24301 12.4685 6.29401C12.5045 6.34501 14.7485 6.42451 16.181 4.40701C17.6135 2.38951 17.324 0.820511 17.273 0.762011ZM22.244 18.3615C22.172 18.2175 18.7565 16.5105 19.0745 13.2285C19.3925 9.94501 21.587 9.04501 21.6215 8.94751C21.656 8.85001 20.726 7.76251 19.7405 7.21201C19.0169 6.82389 18.2161 6.60152 17.396 6.56101C17.234 6.55651 16.6715 6.41851 15.515 6.73501C14.753 6.94351 13.0355 7.61851 12.563 7.64551C12.089 7.67251 10.679 6.86251 9.1625 6.64801C8.192 6.46051 7.163 6.84451 6.4265 7.14001C5.6915 7.43401 4.2935 8.27101 3.3155 10.4955C2.3375 12.7185 2.849 16.2405 3.215 17.3355C3.581 18.429 4.1525 20.2215 5.1245 21.5295C5.9885 23.0055 7.1345 24.03 7.613 24.378C8.0915 24.726 9.4415 24.957 10.3775 24.4785C11.1305 24.0165 12.4895 23.751 13.0265 23.7705C13.562 23.79 14.618 24.0015 15.6995 24.579C16.556 24.8745 17.366 24.7515 18.1775 24.4215C18.989 24.09 20.1635 22.833 21.5345 20.2845C22.055 19.0995 22.292 18.459 22.244 18.3615Z" fill="#034EA2"/>
<path d="M17.273 0.762011C17.222 0.705011 15.3845 0.784511 13.7855 2.52001C12.1865 4.25401 12.4325 6.24301 12.4685 6.29401C12.5045 6.34501 14.7485 6.42451 16.181 4.40701C17.6135 2.38951 17.324 0.820511 17.273 0.762011ZM22.244 18.3615C22.172 18.2175 18.7565 16.5105 19.0745 13.2285C19.3925 9.94501 21.587 9.04501 21.6215 8.94751C21.656 8.85001 20.726 7.76251 19.7405 7.21201C19.0169 6.82389 18.2161 6.60152 17.396 6.56101C17.234 6.55651 16.6715 6.41851 15.515 6.73501C14.753 6.94351 13.0355 7.61851 12.563 7.64551C12.089 7.67251 10.679 6.86251 9.1625 6.64801C8.192 6.46051 7.163 6.84451 6.4265 7.14001C5.6915 7.43401 4.2935 8.27101 3.3155 10.4955C2.3375 12.7185 2.849 16.2405 3.215 17.3355C3.581 18.429 4.1525 20.2215 5.1245 21.5295C5.9885 23.0055 7.1345 24.03 7.613 24.378C8.0915 24.726 9.4415 24.957 10.3775 24.4785C11.1305 24.0165 12.4895 23.751 13.0265 23.7705C13.562 23.79 14.618 24.0015 15.6995 24.579C16.556 24.8745 17.366 24.7515 18.1775 24.4215C18.989 24.09 20.1635 22.833 21.5345 20.2845C22.055 19.0995 22.292 18.459 22.244 18.3615Z" fill="#034EA2"/>
</g>
<defs>
<clipPath id="clip0_677_76">
<rect width="24" height="24" fill="white" transform="translate(0.5 0.75)"/>
</clipPath>
</defs>
</svg>
