<svg width="25" height="25" viewBox="0 0 25 25" fill="none" xmlns="http://www.w3.org/2000/svg">
<g clip-path="url(#clip0_677_1885)">
<path d="M24.0079 12.9745C24.0079 11.9913 23.9295 11.2738 23.7598 10.5297H12.7295V14.9676H19.2041C19.0736 16.0705 18.3687 17.7315 16.8022 18.8476L16.7803 18.9962L20.2678 21.7464L20.5095 21.7709C22.7286 19.6847 24.0079 16.6153 24.0079 12.9745Z" fill="#4285F4"/>
<path d="M12.7295 24.6676C15.9015 24.6676 18.5644 23.6045 20.5095 21.7709L16.8022 18.8476C15.8102 19.5518 14.4787 20.0434 12.7295 20.0434C9.62275 20.0434 6.98593 17.9574 6.04598 15.074L5.9082 15.0859L2.28175 17.9427L2.23433 18.0769C4.16625 21.9834 8.13457 24.6676 12.7295 24.6676Z" fill="#34A853"/>
<path d="M6.0461 15.0739C5.79809 14.3298 5.65456 13.5325 5.65456 12.7087C5.65456 11.8849 5.79809 11.0876 6.03306 10.3435L6.02649 10.1851L2.3546 7.28235L2.23446 7.34052C1.43822 8.96162 0.981339 10.782 0.981339 12.7087C0.981339 14.6354 1.43822 16.4558 2.23446 18.0769L6.0461 15.0739Z" fill="#FBBC05"/>
<path d="M12.7295 5.37403C14.9355 5.37403 16.4236 6.34401 17.2721 7.15461L20.5878 3.85928C18.5514 1.9326 15.9015 0.75 12.7295 0.75C8.13457 0.75 4.16625 3.43406 2.23433 7.34056L6.03292 10.3436C6.98593 7.4602 9.62274 5.37403 12.7295 5.37403Z" fill="#EB4335"/>
</g>
<defs>
<clipPath id="clip0_677_1885">
<rect width="23.04" height="24" fill="white" transform="translate(0.980003 0.75)"/>
</clipPath>
</defs>
</svg>
